# xmcd CD database file
# Copyright (C) 1993-1997  Ti Kan
#
# Track frame offsets:
#	150
#	14232
#	33705
#	53145
#	76292
#	94207
#	109815
#	134387
#	152020
#	181745
#	199225
#
# Disc length: 2879 seconds
#
# Revision: 1
# Processed by: cddbd v1.4b41PL1 Copyright (c) Steve Scherf et al.
# Submitted via: xmcd 2.1 PL2
#
DISCID=940b3d0b
DTITLE=Duke Tumatoe And The Power Trio - Dr. Duke
DYEAR=1900
DGENRE=
TTITLE0=Love To Play The Blues
TTITLE1=Green Onions
TTITLE2=Didn't Do It
TTITLE3=Choice Tattoo
TTITLE4=Make Love To Yo
TTITLE5=Don't Have It In Me
TTITLE6=Free Chicken and Beer
TTITLE7=Do It Right
TTITLE8=Blues With A Feeling
TTITLE9=Sex Cures It
TTITLE10=Kansas City
EXTD=
EXTT0=
EXTT1=
EXTT2=
EXTT3=
EXTT4=
EXTT5=
EXTT6=
EXTT7=
EXTT8=
EXTT9=
EXTT10=
PLAYORDER=
